<?xml version="1.0" encoding="UTF-8"?>
<svg id="Vrstva_2" xmlns="http://www.w3.org/2000/svg" version="1.1" viewBox="0 0 90 60">
  <!-- Generator: Adobe Illustrator 29.3.1, SVG Export Plug-In . SVG Version: 2.1.0 Build 151)  -->
  <defs>
    <style>
      .st0 {
        fill: #fff;
      }
    </style>
  </defs>
  <path class="st0" d="M64.93,19v27c-2.04-.06-3.96-.25-5.79-.54v-26.46h5.79ZM79.78,18.36c7.84,0,10.22,3.58,10.22,8.38v14.48c-1.14.4-2.25.76-3.33,1.1-1.71.54-3.44,1.02-5.18,1.46-2.81.71-5.65,1.24-8.53,1.59-3.44-.81-5.47-3.33-5.47-6.93,0-5.95,4.13-9.32,14.03-9.32.85,0,1.85.05,2.59.11v-2.48c0-2.42-1.06-4-4.66-4s-5.61,1.53-5.72,4.21h-5.51c.42-5.37,4.45-8.59,11.54-8.59ZM38.35,19l6.68,20.01,7-20.01h5.83l-8.46,23.79c-3.42-1.14-6.71-2.41-10.16-3.51l-7.09-20.28h6.2,0ZM5.79,19v20.57C3.94,40.12,2.02,40.76,0,41.5v-22.5h5.79ZM82.2,32.95h-.51c-5.35,0-8.15,1.32-8.15,4.58,0,2.32,1.43,3.63,3.92,3.63,3.65,0,6.67-2.37,6.67-6.37v-1.79c-.74-.05-1.59-.05-2.44-.05h.51ZM23.01,18.36c5.41,0,8.49,3.52,8.49,9.41v9.36c-1.97-.34-3.95-.56-5.94-.66v-7.55c0-3.52-1.11-5.52-4.46-5.52s-6.21,2.26-6.21,7.46v6.23c-1.86.29-3.82.68-5.89,1.19v-19.4h5.89v4.47c1.38-2.94,3.87-4.99,8.12-4.99ZM5.78,10v5.14H0v-5.14h5.79,0ZM64.93,10v5.14h-5.79v-5.14h5.79Z"/>
</svg>